<?xml version="1.0" encoding="UTF-8" standalone="no"?><!DOCTYPE svg PUBLIC "-//W3C//DTD SVG 1.1//EN" "http://www.w3.org/Graphics/SVG/1.1/DTD/svg11.dtd"><svg width="100%" height="100%" viewBox="0 0 7112 4445" version="1.1" xmlns="http://www.w3.org/2000/svg" xmlns:xlink="http://www.w3.org/1999/xlink" xml:space="preserve" xmlns:serif="http://www.serif.com/" style="fill-rule:evenodd;clip-rule:evenodd;stroke-linejoin:round;stroke-miterlimit:2;"><g id="background"></g><g id="screenshot"></g><path d="M5342.32,1408.37c0,-449.179 -364.676,-813.855 -813.854,-813.855l-1945.82,0c-449.178,0 -813.854,364.676 -813.854,813.855l0,1627.71c0,449.178 364.676,813.854 813.854,813.854l1945.82,0c449.178,0 813.854,-364.676 813.854,-813.854l0,-1627.71Z" style="fill:url(#_Linear1);"/><g><g><g><g id="d"><path d="M3999.77,2493.55c209.323,0 379.266,167.646 379.266,374.14c0,206.493 -169.943,374.139 -379.266,374.139c-209.322,0 -379.265,-167.646 -379.265,-374.139c0,-206.494 169.943,-374.14 379.265,-374.14Zm0,146.535c127.34,0 230.723,101.986 230.723,227.605c0,125.618 -103.383,227.604 -230.723,227.604c-127.339,0 -230.723,-101.986 -230.723,-227.604c0,-125.619 103.384,-227.605 230.723,-227.605Z" style="fill:#f4f6f8;"/><rect x="4239.49" y="2182.67" width="137.739" height="676.527" style="fill:#f4f6f8;"/></g><path d="M3384.23,2573.03c-71.644,-73.471 -168.813,-114.746 -270.132,-114.746c-210.844,0 -382.024,175.546 -382.024,391.77c0,216.224 171.18,391.77 382.024,391.77c92.108,0 181.115,-34.127 250.63,-96.097l-97.141,-114.6c-42.572,37.952 -97.081,58.852 -153.489,58.852c-129.124,0 -233.956,-107.507 -233.956,-239.925c0,-132.418 104.832,-239.925 233.956,-239.925c62.049,0 121.557,25.278 165.432,70.272l104.7,-107.371Z" style="fill:#f4f6f8;"/></g><path d="M3639.12,2458.28c98.469,-65.794 120.541,-205.824 49.258,-312.508c-49.38,-73.903 -90.943,-97.928 -144.557,-83.843c-14.82,3.645 -26.633,14.81 -31.106,29.4c-4.474,14.591 -0.949,30.459 9.281,41.783c15.134,17.279 91.904,71.402 120.486,114.179c53.835,80.571 7.643,146.036 -3.362,210.989Z" style="fill:#fef8f8;"/></g><g><path d="M4075.52,1335.99l-246.479,-172.925l-1698.76,700.114l246.478,172.926l1698.76,-700.115Z" style="fill:#f4f6f8;"/><path d="M3837.45,1166.58l-77.435,31.914l1143.38,802.176l77.435,-31.914l-1143.38,-802.176Z" style="fill:#f4f6f8;"/></g></g><g id="roof"></g><g id="d1" serif:id="d"></g><defs><linearGradient id="_Linear1" x1="0" y1="0" x2="1" y2="0" gradientUnits="userSpaceOnUse" gradientTransform="matrix(1.285e-13,2173.4,-2098.57,1.33082e-13,3555.56,821.07)"><stop offset="0" style="stop-color:#8fbcd6;stop-opacity:1"/><stop offset="1" style="stop-color:#218cca;stop-opacity:1"/></linearGradient></defs></svg>